#!OML:ASF E:\EmotionMaleHayes\Project 1\Capture day 1\Session 1\Male1.ASF
:FULLY-SPECIFIED
:DEGREES
775
root 50.1529 16.6324 -0.99573 947.922 95.1205 947.195
lowerback 0.570643 1.5889 -6.45348
upperback 1.20464 2.16273 -1.49044
thorax 0.743429 1.04892 2.07675
lowerneck -24.8872 1.22946 3.38174
upperneck 24.6645 1.16961 -2.06281
head 12.3249 0.612758 -1.13142
rclavicle 5.26779e-015 1.59028e-014
rhumerus -33.0065 5.92575 -91.2228
rradius 30.0823
rwrist 1.39643
rhand -12.305 -28.974
rfingers 7.12502
rthumb 13.7631 -58.4988
lclavicle 5.26779e-015 1.59028e-014
lhumerus -34.3315 -9.93315 92.7875
lradius 22.9767
lwrist 3.83188
lhand -13.7904 -23.3895
lfingers 7.12502
lthumb 12.3312 6.22687
rfemur -0.250203 -2.53185 15.2212
rtibia 22.3226
rfoot -23.5205 3.46424
rtoes 9.01566
lfemur -4.16157 2.54843 -24.4425
ltibia 27.9524
lfoot -24.1326 10.3814
ltoes -2.77627
776
root 50.158 16.6294 -0.995762 950.267 95.2852 949.641
lowerback 0.59964 1.56469 -6.70513
upperback 1.26554 2.13457 -1.55426
thorax 0.786676 1.03177 2.15127
lowerneck -24.8514 1.28202 3.36189
upperneck 24.5775 1.23787 -2.0212
head 12.2855 0.645852 -1.09974
rclavicle -7.70291e-016 2.22639e-014
rhumerus -32.898 5.91526 -91.2613
rradius 30.179
rwrist 1.24467
rhand -12.2643 -29.05
rfingers 7.12502
rthumb 13.8023 -58.5721
lclavicle -7.70291e-016 2.22639e-014
lhumerus -34.468 -9.63786 92.5454
lradius 23.1192
lwrist 3.69088
lhand -13.916 -23.6379
lfingers 7.12502
lthumb 12.2101 5.98572
rfemur -0.13642 -2.7492 14.8344
rtibia 22.3255
rfoot -23.5088 3.77208
rtoes 9.1908
lfemur -3.96664 2.68172 -24.7284
ltibia 27.9268
lfoot -24.2785 10.2591
ltoes -3.50914
777
root 50.1586 16.624 -0.982185 949.791 95.4038 949.2
lowerback 0.548334 1.60328 -6.95161
upperback 1.32408 2.194 -1.51573
thorax 0.861103 1.05578 2.33003
lowerneck -24.8901 1.31086 3.25567
upperneck 24.4999 1.25251 -1.81265
head 12.2608 0.669414 -0.999702
rclavicle 1.1281e-014 -3.18055e-015
rhumerus -32.7636 5.8048 -91.2286
rradius 30.297
rwrist 1.33653
rhand -11.9952 -29.2125
rfingers 7.12502
rthumb 14.0616 -58.7167
lclavicle 1.1281e-014 -3.18055e-015
lhumerus -34.4791 -9.50164 92.3541
lradius 23.1324
lwrist 3.49035
lhand -14.1842 -23.9635
lfingers 7.12502
lthumb 11.9515 5.67534
rfemur -0.0974799 -2.2599 14.9326
rtibia 22.3
rfoot -23.6168 3.26635
rtoes 8.36405
lfemur -3.91454 2.68804 -24.7438
ltibia 27.9297
lfoot -24.475 10.2438
ltoes -3.24638
778
root 50.1587 16.6274 -0.969452 946.518 95.2286 945.96
lowerback 0.569635 1.65821 -6.73984
upperback 1.35585 2.26279 -1.39296
thorax 0.877961 1.08907 2.33824
lowerneck -24.9746 1.28857 3.07124
upperneck 24.482 1.19942 -1.51627
head 12.2652 0.668232 -0.865435
rclavicle -1.94809e-014 1.51076e-014
rhumerus -32.6213 5.89737 -91.2744
rradius 30.2468
rwrist 1.3914
rhand -11.9175 -29.1266
rfingers 7.12502
rthumb 14.1365 -58.6256
lclavicle -1.94809e-014 1.51076e-014
lhumerus -34.4354 -9.50284 92.1849
lradius 23.0395
lwrist 3.31139
lhand -14.298 -23.9802
lfingers 7.12502
lthumb 11.8417 5.66493
rfemur -0.0508472 -1.74556 15.4695
rtibia 22.2668
rfoot -23.693 2.79362
rtoes 8.27973
lfemur -3.90942 2.59496 -24.3327
ltibia 27.9437
lfoot -24.471 10.4448
ltoes -3.45264
779
root 50.1597 16.6294 -0.967611 946.186 95.1449 945.603
lowerback 0.502573 1.66453 -6.63898
upperback 1.37668 2.27683 -1.36412
thorax 0.938205 1.0943 2.31442
lowerneck -24.9936 1.24121 2.9801
upperneck 24.4567 1.15424 -1.47596
head 12.2567 0.644401 -0.842832
rclavicle 1.91082e-014 -1.55052e-014
rhumerus -32.4885 6.02761 -91.3224
rradius 30.1292
rwrist 1.55949
rhand -11.954 -28.7681
rfingers 7.12502
rthumb 14.1013 -58.2696
lclavicle 1.91082e-014 -1.55052e-014
lhumerus -34.4246 -9.48197 92.0332
lradius 22.9635
lwrist 3.23301
lhand -14.3783 -24.025
lfingers 7.12502
lthumb 11.7643 5.62458
rfemur 0.0126357 -1.88928 15.5497
rtibia 22.1061
rfoot -23.607 2.86501
rtoes 8.42963
lfemur -4.03608 2.4461 -24.2443
ltibia 28.0421
lfoot -24.3818 10.6515
ltoes -4.14677
780
root 50.1622 16.6291 -0.965962 946.749 95.1092 946.155
lowerback 0.373635 1.66278 -6.6227
upperback 1.43721 2.28897 -1.36797
thorax 1.07286 1.09543 2.30683
lowerneck -25.0926 1.17541 2.98249
upperneck 24.4769 1.08335 -1.56863
head 12.2823 0.599475 -0.891078
rclavicle -1.14301e-015 -3.02153e-014
rhumerus -32.3758 6.01337 -91.3504
rradius 30.21
rwrist 1.62932
rhand -11.9575 -28.7212
rfingers 7.12502
rthumb 14.0979 -58.223
lclavicle -1.14301e-015 -3.02153e-014
lhumerus -34.3728 -9.36797 91.8377
lradius 22.893
lwrist 3.19684
lhand -14.4711 -24.1404
lfingers 7.12502
lthumb 11.6749 5.51433
rfemur 0.0433822 -2.03417 15.5224
rtibia 22.0627
rfoot -23.5787 2.89865
rtoes 8.22102
lfemur -4.07665 2.40142 -24.2449
ltibia 28.0566
lfoot -24.3686 10.6322
ltoes -4.51907
781
root 50.1575 16.6335 -0.952832 943.241 94.989 942.688
lowerback 0.466165 1.7412 -6.43597
upperback 1.44843 2.38234 -1.26647
thorax 1.02665 1.14365 2.30422
lowerneck -25.2265 1.13915 3.00561
upperneck 24.5559 1.02799 -1.59909
head 12.3381 0.572827 -0.91662
rclavicle 3.18304e-014 -8.34896e-015
rhumerus -32.3985 5.91371 -91.3982
rradius 30.4953
rwrist 1.41521
rhand -12.1016 -28.9529
rfingers 7.12502
rthumb 13.9591 -58.4643
lclavicle 3.18304e-014 -8.34896e-015
lhumerus -34.3191 -9.08215 91.5464
lradius 22.8204
lwrist 2.87861
lhand -14.4062 -24.0722
lfingers 7.12502
lthumb 11.7374 5.57897
rfemur 0.00375749 -1.22983 16.0813
rtibia 22.1807
rfoot -23.7084 2.20029
rtoes 8.17004
lfemur -4.00297 2.3677 -23.8569
ltibia 27.9905
lfoot -24.4387 10.6547
ltoes -4.30499
782
root 50.1554 16.632 -0.957198 949.129 95.2449 948.423
lowerback 0.455573 1.69412 -6.87397
upperback 1.30956 2.31953 -1.43982
thorax 0.886251 1.1174 2.36705
lowerneck -25.165 1.16391 3.03784
upperneck 24.6198 1.06308 -1.62162
head 12.3528 0.590178 -0.924516
rclavicle -2.06488e-014 2.74323e-014
rhumerus -32.5828 5.90392 -91.4785
rradius 30.6985
rwrist 1.16453
rhand -12.2943 -29.036
rfingers 7.12502
rthumb 13.7733 -58.5601
lclavicle -2.06488e-014 2.74323e-014
lhumerus -34.3983 -8.6101 91.1986
lradius 22.7262
lwrist 2.13185
lhand -14.2911 -23.9801
lfingers 7.12502
lthumb 11.8484 5.66471
rfemur -0.237732 -1.97014 15.308
rtibia 22.3235
rfoot -23.5959 2.84402
rtoes 8.61918
lfemur -4.11946 2.43167 -24.4687
ltibia 27.8962
lfoot -24.4025 10.3744
ltoes -3.86346
783
root 50.1679 16.6221 -0.969615 954.965 95.4034 954.22
lowerback 0.298602 1.58837 -7.11562
upperback 1.27882 2.19741 -1.60687
thorax 0.952441 1.05526 2.33436
lowerneck -25.0321 1.15256 3.01573
upperneck 24.5939 1.05966 -1.61437
head 12.3166 0.588573 -0.918526
rclavicle -8.49804e-015 1.78906e-014
rhumerus -32.6629 5.95317 -91.5533
rradius 30.7322
rwrist 1.08546
rhand -12.3772 -28.9698
rfingers 7.12502
rthumb 13.6935 -58.4992
lclavicle -8.49804e-015 1.78906e-014
lhumerus -34.4348 -8.13063 90.8533
lradius 22.5825
lwrist 1.49434
lhand -14.0582 -23.8944
lfingers 7.12502
lthumb 12.073 5.73732
rfemur -0.255886 -3.44791 14.4232
rtibia 22.443
rfoot -23.4963 4.11545
rtoes 8.73221
lfemur -4.05917 2.67539 -25.0038
ltibia 27.8247
lfoot -24.281 9.97876
ltoes -4.2064
784
root 50.1664 16.6265 -0.964914 953.754 95.2925 952.994
lowerback 0.295932 1.62296 -6.9735
upperback 1.27787 2.24114 -1.56098
thorax 0.951861 1.07759 2.30266
lowerneck -24.9868 1.13609 2.9954
upperneck 24.5258 1.04672 -1.62318
head 12.2804 0.578998 -0.920542
rclavicle -2.01269e-015 -4.77083e-015
rhumerus -32.5768 5.86134 -91.5515
rradius 30.7187
rwrist 1.23813
rhand -12.3044 -28.7779
rfingers 7.12502
rthumb 13.7636 -58.3026
lclavicle -2.01269e-015 -4.77083e-015
lhumerus -34.3768 -7.95412 90.6251
lradius 22.4324
lwrist 1.35583
lhand -13.9822 -23.9219
lfingers 7.12502
lthumb 12.1462 5.7055
rfemur -0.363757 -3.14634 14.693
rtibia 22.6142
rfoot -23.6937 3.81701
rtoes 8.17972
lfemur -4.05529 2.66338 -24.8124
ltibia 27.7316
lfoot -24.096 10.198
ltoes -5.12114
785
root 50.164 16.6288 -0.963154 953.572 95.2517 952.821
lowerback 0.324622 1.65184 -6.90848
upperback 1.27797 2.27621 -1.54841
thorax 0.934405 1.096 2.27845
lowerneck -24.966 1.0296 2.7544
upperneck 24.4112 0.902801 -1.34104
head 12.2246 0.529607 -0.798078
rclavicle 9.16894e-015 4.77083e-015
rhumerus -32.4986 5.76859 -91.546
rradius 30.676
rwrist 1.34219
rhand -12.3834 -28.4794
rfingers 7.12502
rthumb 13.6876 -58.0093
lclavicle 9.16894e-015 4.77083e-015
lhumerus -34.2914 -8.01698 90.5068
lradius 22.2549
lwrist 1.47437
lhand -14.1754 -24.0948
lfingers 7.12502
lthumb 11.96 5.54355
rfemur -0.373073 -3.13585 14.7568
rtibia 22.6434
rfoot -23.7126 3.76567
rtoes 7.94609
lfemur -4.07839 2.54483 -24.7756
ltibia 27.7387
lfoot -23.9869 10.4183
ltoes -5.58318
